PathFileType	4	(X/Y/Z)	Run_200 02
DataRate	CameraRate	NumFrames	NumMarkers	Units	OrigDataRate	OrigDataStartFrame	OrigNumFrames
120	120	8	41	mm	120	143	125
Frame#	Time	LASI			RASI			LPSI			RPSI			RTH1			RTH3			LTH1			LTH2			LTH3			RTB1			RTB2			RTB3			LTB1			LTB2			LTB3			RCAL			RTOE			RMT5			LCAL			LTOE			LMT5			LACR			RACR			CLAV			C7			RUA1			RUA2			RUA3			RLEL			RMEL			LUA1			LUA2			LUA3			LLEL			LMEL			RFAsuperior			RFAradius			RFAulna			LFAsuperior			LFAradius			LFAulna			
		X1	Y1	Z1	X2	Y2	Z2	X3	Y3	Z3	X4	Y4	Z4	X5	Y5	Z5	X6	Y6	Z6	X7	Y7	Z7	X8	Y8	Z8	X9	Y9	Z9	X10	Y10	Z10	X11	Y11	Z11	X12	Y12	Z12	X13	Y13	Z13	X14	Y14	Z14	X15	Y15	Z15	X16	Y16	Z16	X17	Y17	Z17	X18	Y18	Z18	X19	Y19	Z19	X20	Y20	Z20	X21	Y21	Z21	X22	Y22	Z22	X23	Y23	Z23	X24	Y24	Z24	X25	Y25	Z25	X26	Y26	Z26	X27	Y27	Z27	X28	Y28	Z28	X29	Y29	Z29	X30	Y30	Z30	X31	Y31	Z31	X32	Y32	Z32	X33	Y33	Z33	X34	Y34	Z34	X35	Y35	Z35	X36	Y36	Z36	X37	Y37	Z37	X38	Y38	Z38	X39	Y39	Z39	X40	Y40	Z40	X41	Y41	Z41	

143	1.958333	905.1623949999999	1060.530988	-376.356005	908.819016	1051.820887	-147.591629	748.5853969999999	1096.662292	-310.407661	746.358238	1101.200014	-213.177339	822.103345	893.785671	-84.69228699999999	768.036752	634.736722	-119.356899	880.817457	864.573402	-432.730383	949.618508	765.577404	-409.517327	901.069265	645.630568	-375.314606	689.7889719999999	410.279553	-175.008693	624.729388	394.844553	-108.27184	594.080558	330.077683	-169.480366	984.305391	436.463441	-290.464797	955.371341	356.31874	-363.867408	991.067681	267.881918	-287.537545	421.534412	299.820855	-150.17844	503.380558	123.083715	-230.034431	473.333868	103.96211	-139.972062	911.404036	103.706823	-285.341522	1110.668671	154.473961	-253.412293	1109.416081	123.987617	-340.454928	825.184045	1524.373989	-442.350543	890.635165	1515.817707	-68.19843299999999	922.376365	1507.435883	-246.337989	799.67474	1564.834316	-260.844456	849.883472	1384.296124	-7.495147	775.198054	1379.142662	-7.618002	819.989007	1310.760065	32.606195	794.802445	1240.908502	50.056318	746.1559119999999	1221.902549	-15.621296	723.8337739999999	1434.411993	-494.74489	651.775893	1417.3627	-467.288306	684.715502	1354.719379	-509.402692	610.120695	1306.215772	-521.1620820000001	586.986866	1315.28406	-438.469141	898.812303	1204.385743	-11.992832	968.995995	1182.644523	-109.806363	966.986847	1120.82932	-76.283134	699.087597	1212.559662	-505.442508	794.357922	1170.018091	-431.062875	765.323146	1120.82468	-469.400906	
144	1.966667	904.071823	1056.720621	-377.200156	908.316233	1048.997148	-145.723435	747.22343	1091.572867	-310.895596	744.898488	1096.309581	-213.797555	824.365019	888.863389	-85.14451699999999	775.855991	628.766797	-118.675826	880.088152	860.594614	-432.945171	949.756351	762.4554450000001	-409.23654	901.882997	642.435097	-374.28814	694.198453	407.362927	-173.610981	628.0710759999999	394.926756	-106.936687	595.170693	331.432103	-167.799034	982.981421	432.229481	-288.970591	953.120541	352.230842	-362.318782	987.059605	263.545882	-285.604923	421.088421	308.029692	-149.448021	498.214142	127.975305	-226.427566	466.212399	110.765645	-136.460283	905.0528409999999	101.1811	-283.46864	1104.664111	149.475978	-251.038743	1103.27422	118.343079	-337.58918	826.515574	1520.253477	-443.929081	889.50215	1511.723501	-69.07083299999999	922.3896	1503.342868	-247.097721	799.829097	1561.088898	-262.53031	847.633304	1380.245833	-8.720027	772.865588	1375.797638	-9.073922	816.982674	1306.625079	30.511344	790.837044	1237.54664	48.621345	742.179663	1218.912216	-17.336667	725.314337	1429.130295	-496.282491	653.246978	1411.763621	-468.608614	686.620285	1349.219514	-510.424139	612.350516	1300.174928	-521.993012	589.2507430000001	1309.178953	-439.409785	894.875277	1198.557945	-11.945525	965.917597	1174.505591	-108.50128	962.1783789999999	1112.865695	-74.556899	701.765029	1206.887273	-506.193711	797.440682	1165.029602	-431.802307	768.461468	1115.595024	-469.982224	
145	1.975	902.750882	1052.260302	-378.148898	907.844923	1044.988074	-144.363851	745.714566	1085.763546	-311.237485	743.395172	1090.471436	-214.292646	826.761262	883.164819	-85.609521	784.044519	622.26959	-117.908983	879.0857109999999	856.243126	-432.637305	950.38441	759.492282	-408.369885	903.047424	638.741475	-373.64519	699.394814	404.028154	-172.266852	632.079434	394.911679	-105.781593	597.166664	332.884665	-166.446939	981.383884	427.198767	-287.822684	949.708727	347.528878	-360.909388	981.824661	258.553535	-283.836554	421.082127	316.069439	-149.249279	494.644118	132.854671	-222.159375	461.204826	118.097796	-132.270225	896.680141	99.76771100000001	-281.476618	1096.819339	142.343	-248.52212	1094.973639	110.919796	-334.628059	828.041198	1515.385378	-445.495427	888.256891	1506.942563	-69.918297	922.388509	1498.478067	-247.743406	799.996113	1556.651128	-264.263761	845.140949	1375.550485	-9.985861999999999	770.310934	1371.872501	-10.644985	813.6882440000001	1301.796269	28.229604	786.4781829999999	1233.563872	47.079455	738.217636	1215.18685	-19.292874	727.098353	1422.977332	-497.920131	654.9704400000001	1405.281914	-470.219437	688.9203209999999	1342.782879	-511.534207	614.963606	1293.20544	-523.023519	591.754078	1302.232896	-440.592021	890.501976	1191.954377	-11.776173	962.467955	1165.32364	-106.75244	956.841607	1103.947146	-72.42765900000001	704.858753	1200.345546	-507.049399	800.886026	1159.269988	-432.608281	771.995844	1109.566289	-470.524488	
146	1.983333	901.17673	1047.160737	-378.877754	907.277822	1039.652238	-144.151902	744.080306	1079.232635	-311.438342	741.86843	1083.684905	-214.592155	829.187428	876.815558	-86.07288	792.412267	615.179724	-117.159018	878.091674	851.383851	-431.838408	951.4173479999999	756.477727	-406.758024	904.437981	634.329446	-373.495602	705.364209	400.150229	-170.633629	636.80276	394.777036	-104.749332	600.097451	334.282334	-165.362876	979.44634	421.409756	-286.981124	945.149828	342.270353	-359.505944	975.60309	252.989226	-282.100178	421.710293	323.89223	-149.40682	492.631187	137.668849	-217.372302	458.262857	125.750389	-127.611388	886.7129	99.559085	-279.289336	1087.48668	132.890182	-245.818755	1084.756804	101.89167	-331.851708	829.74728	1509.763087	-447.027631	886.881965	1501.482053	-70.75882799999999	922.374472	1492.839304	-248.330622	800.196132	1551.580441	-266.020191	842.390124	1370.227338	-11.312281	767.5348760000001	1367.39444	-12.362927	810.07673	1296.304471	25.783164	781.730123	1228.978189	45.433623	734.381831	1210.693683	-21.486747	729.1955	1415.961386	-499.652066	656.958425	1397.941688	-472.136895	691.617295	1335.404379	-512.7446629999999	617.972367	1285.351608	-524.313205	594.540788	1294.663085	-441.935104	885.681585	1184.579432	-11.48762	958.563225	1155.111348	-104.664259	950.937674	1094.178576	-69.92862	708.381303	1192.976468	-508.012921	804.706837	1152.811789	-433.502493	775.947011	1102.784266	-471.045799	
147	1.991667	899.355069	1041.399986	-379.194459	906.519485	1033.137753	-145.009285	742.316779	1072.001745	-311.501506	740.2758679999999	1076.017796	-214.644017	831.537088	869.923505	-86.495726	800.814493	607.416326	-116.506729	877.293301	845.852342	-430.852033	952.602029	753.0008340000001	-404.655154	905.890856	629.066842	-373.693065	712.018316	395.780689	-168.592292	642.325353	394.419163	-103.766645	603.975407	335.404165	-164.499924	977.28962	414.960411	-286.301408	939.716628	336.525255	-357.899195	968.812202	246.944988	-280.187194	423.269786	331.446694	-149.805323	491.998954	142.334562	-212.294714	457.180482	133.522041	-122.677818	875.678689	100.204797	-276.922949	1077.11643	121.582594	-243.046728	1073.077393	91.91980700000001	-329.483912	831.629963	1503.379031	-448.541277	885.364026	1495.354436	-71.589358	922.345726	1486.417519	-248.914513	800.419181	1545.860209	-267.743368	839.370809	1364.297299	-12.693704	764.531695	1362.382455	-14.210567	806.130496	1290.201312	23.207258	776.598764	1223.820263	43.709363	730.408451	1205.554375	-23.803979	731.617938	1408.094478	-501.465454	659.227691	1389.766206	-474.37244	694.706702	1327.097617	-514.051033	621.386966	1276.653058	-525.901462	597.690213	1286.583664	-443.374283	880.3898809999999	1176.437961	-11.079438	954.154397	1143.941152	-102.326173	944.401226	1083.620345	-67.136664	712.33429	1184.822093	-509.076685	808.907571	1145.711805	-434.422389	780.332641	1095.305087	-471.561989	
148	2	897.317693	1034.954313	-379.257894	905.519298	1025.784023	-146.371913	740.35139	1064.144178	-311.469144	738.523072	1067.623723	-214.482519	833.722431	862.4895760000001	-86.888555	809.186466	599.022148	-115.951	876.674884	839.577541	-430.162185	953.574035	748.592599	-402.732347	907.151983	623.069422	-373.860893	719.227886	391.157837	-166.419732	648.725266	393.703276	-102.787536	608.8123900000001	336.122312	-163.91256	975.179762	408.139286	-285.513825	934.1161059999999	330.494887	-355.93782	961.826783	240.655119	-277.917533	426.063306	338.663835	-150.408877	492.543461	146.785454	-207.183385	457.712672	141.24419	-117.581842	863.978174	101.225614	-274.5027	1066.031704	109.635162	-240.371624	1060.440714	82.231915	-327.585681	833.686701	1496.2356	-450.080203	883.708067	1488.574821	-72.347747	922.30308	1479.235738	-249.496086	800.5934109999999	1539.383567	-269.342291	836.087038	1357.768671	-14.073207	761.286502	1356.84146	-16.131039	801.841106	1283.549873	20.583004	771.0915189999999	1218.132654	41.966577	725.89842	1199.968597	-26.096003	734.369901	1399.394346	-503.351194	661.77914	1380.768745	-476.932225	698.180525	1317.903383	-515.433989	625.201631	1267.13104	-527.7797	601.224879	1277.853835	-444.969296	874.599232	1167.554083	-10.525798	949.227588	1131.92872	-99.739783	937.160831	1072.296059	-64.12479399999999	716.7115669999999	1175.927232	-510.222507	813.46507	1137.987348	-435.233822	785.165358	1087.194631	-472.083219	
149	2.008333	895.056657	1027.876494	-379.475666	904.2535360000001	1017.9105	-147.741029	738.040794	1055.797209	-311.436536	736.520326	1058.683769	-214.258552	835.722222	854.383745	-87.347385	817.535457	590.244827	-115.426997	876.055749	832.820124	-430.217402	954.014286	743.014891	-401.742062	907.941313	616.786051	-373.599838	726.91713	386.573627	-164.585749	656.039055	392.529507	-101.82178	614.620768	336.463933	-163.656908	973.311947	401.493895	-284.258681	929.34961	324.616219	-353.649347	954.695994	234.584699	-275.284392	430.328227	345.449405	-151.226539	494.136854	150.958046	-202.232881	459.657811	148.776452	-112.378272	851.699511	102.313573	-272.215634	1054.248151	98.66009	-237.902219	1047.167768	74.244461	-326.081061	835.904793	1488.363847	-451.696198	881.929944	1481.178824	-72.910098	922.273131	1471.408703	-250.01588	800.613149	1532.08308	-270.748969	832.544537	1350.630217	-15.356082	757.776692	1350.759161	-18.055153	797.190274	1276.394358	18.022537	765.213528	1211.964315	40.274084	720.6546489999999	1194.077612	-28.280323	737.436175	1389.883899	-505.322561	664.58886	1370.954661	-479.808309	702.03015	1307.884125	-516.87937	629.398847	1256.801602	-529.89885	605.031925	1268.142959	-446.911706	868.292553	1157.979647	-9.783417	943.740739	1119.15138	-96.88466200000001	929.1685199999999	1060.235183	-60.914236	721.508438	1166.344719	-511.423112	818.339554	1129.645212	-435.812384	790.4604880000001	1078.526532	-472.604499	
150	2.016667	892.4876369999999	1020.370802	-380.150329	902.729995	1009.652961	-148.979088	735.240512	1047.172041	-311.48815	734.258689	1049.308514	-214.156395	837.623681	845.493304	-87.994355	825.90691	581.506317	-114.885435	875.260931	826.248146	-431.181283	953.797597	736.534236	-402.043807	908.147188	610.874837	-372.797541	735.135992	382.281261	-163.382404	664.25888	390.885236	-100.926112	621.384879	336.527776	-163.570811	971.570031	395.7004	-282.25665	926.155849	319.510823	-351.264969	947.099094	229.350283	-272.532219	436.202278	351.688875	-152.263823	496.775376	154.741626	-197.495997	462.893448	155.981745	-107.146126	838.662057	103.381334	-270.239853	1041.532895	90.01259400000001	-235.715836	1033.304738	68.878056	-324.87283	838.255797	1479.850298	-453.428628	880.028009	1473.258203	-73.138777	922.321627	1463.173681	-250.401228	800.449169	1524.130303	-271.991487	828.730041	1342.883125	-16.459311	753.975564	1344.113083	-19.922886	792.137492	1268.749472	15.61343	758.9669699999999	1205.371859	38.660298	714.831268	1187.893794	-30.382073	740.7775779999999	1379.591988	-507.413652	667.61974	1360.340114	-482.983064	706.242801	1297.104836	-518.391332	633.967942	1245.70464	-532.2021109999999	608.897694	1257.202395	-449.384958	861.465556	1147.793702	-8.824018000000001	937.570514	1105.608184	-93.837462	920.409646	1047.518765	-57.470193	726.733108	1156.140854	-512.6539780000001	823.517164	1120.773373	-436.160981	796.24755	1069.387144	-473.093414	
